# xmcd CD database file
#
# Track frame offsets:
#	150
#	5558
#	10099
#	29089
#	41186
#	84643
#	87347
#	103815
#	120030
#	120682
#	131552
#	167922
#	181280
#	195173
#	204622
#	210597
#	245738
#	259427
#	266199
#	279188
#
# Disc length: 4150 seconds
#
# Revision: 0
# Processed by: cddbd v1.5.2PL0 Copyright (c) Steve Scherf et al.
# Submitted via: CDex 1.82
#
DISCID=1f103414
DTITLE=Abdullah Ibrahim Piano Solo - Dream TIme
DYEAR=2019
DGENRE=Jazz
TTITLE0=Trieste My Love
TTITLE1=Genesis
TTITLE2=For Coltrane
TTITLE3=Blue Bolero
TTITLE4=Nisa
TTITLE5=Blue Bolero 2
TTITLE6=Capetown District Six
TTITLE7=Sotho Blue
TTITLE8=Machopi
TTITLE9=Whoza Mtwana
TTITLE10=Blues For A Hip King
TTITLE11=Dream Time
TTITLE12=In The Evening
TTITLE13=Song For Lawrence Brown
TTITLE14=Blue Bolero 3
TTITLE15=edication To Duke Ellington
TTITLE16=The Balance
TTITLE17=Aspen
TTITLE18=Did You Hear That Sound
TTITLE19=Blue Bolero 4
EXTD=YEAR: 2019
EXTT0=
EXTT1=
EXTT2=
EXTT3=
EXTT4=
EXTT5=
EXTT6=
EXTT7=
EXTT8=
EXTT9=
EXTT10=
EXTT11=
EXTT12=
EXTT13=
EXTT14=
EXTT15=
EXTT16=
EXTT17=
EXTT18=
EXTT19=
PLAYORDER=
